<svg width="24" height="24" viewBox="0 0 24 24" fill="none" xmlns="http://www.w3.org/2000/svg">
<rect x="2" y="7" width="12" height="7" rx="1" fill="url(#paint0_linear_1_2)"/>
<rect x="2.25" y="7.25" width="11.5" height="6.5" rx="0.75" stroke="white" stroke-opacity="0.1" stroke-width="0.5"/>
<rect x="10" y="4" width="12" height="7" rx="1" fill="url(#paint1_linear_1_2)"/>
<rect x="10.25" y="4.25" width="11.5" height="6.5" rx="0.75" stroke="white" stroke-opacity="0.1" stroke-width="0.5"/>
<rect x="6" y="2" width="12" height="7" rx="1" fill="url(#paint2_linear_1_2)"/>
<rect x="6.25" y="2.25" width="11.5" height="6.5" rx="0.75" stroke="white" stroke-opacity="0.1" stroke-width="0.5"/>
<path d="M10.5 14V16M20 20.5H14.5C12.2909 20.5 10.5 18.7091 10.5 16.5V16M10.5 16H13C15.2091 16 17 14.2091 17 12V11" stroke="url(#paint3_linear_1_2)" stroke-width="2"/>
<defs>
<linearGradient id="paint0_linear_1_2" x1="8" y1="7" x2="8" y2="14" gradientUnits="userSpaceOnUse">
<stop stop-color="#408060"/>
<stop offset="1" stop-color="#004020"/>
</linearGradient>
<linearGradient id="paint1_linear_1_2" x1="16" y1="4" x2="16" y2="11" gradientUnits="userSpaceOnUse">
<stop stop-color="#408060"/>
<stop offset="1" stop-color="#004020"/>
</linearGradient>
<linearGradient id="paint2_linear_1_2" x1="12" y1="2" x2="12" y2="9" gradientUnits="userSpaceOnUse">
<stop stop-color="#408060"/>
<stop offset="1" stop-color="#004020"/>
</linearGradient>
<linearGradient id="paint3_linear_1_2" x1="15.25" y1="11" x2="15.25" y2="20.5" gradientUnits="userSpaceOnUse">
<stop stop-color="#002010"/>
<stop offset="1" stop-color="#001005"/>
</linearGradient>
</defs>
</svg>
