<svg width="58" height="19" viewBox="0 0 58 19" fill="none" xmlns="http://www.w3.org/2000/svg">
<g clip-path="url(#clip0_1_31)">
<rect y="5" width="12" height="7" rx="1" fill="url(#paint0_linear_1_31)"/>
<rect x="0.25" y="5.25" width="11.5" height="6.5" rx="0.75" stroke="white" stroke-opacity="0.1" stroke-width="0.5"/>
<rect x="8" y="2" width="12" height="7" rx="1" fill="url(#paint1_linear_1_31)"/>
<rect x="8.25" y="2.25" width="11.5" height="6.5" rx="0.75" stroke="white" stroke-opacity="0.1" stroke-width="0.5"/>
<rect x="4" width="12" height="7" rx="1" fill="url(#paint2_linear_1_31)"/>
<rect x="4.25" y="0.25" width="11.5" height="6.5" rx="0.75" stroke="white" stroke-opacity="0.1" stroke-width="0.5"/>
<path d="M8.5 12V14M18 18.5H12.5C10.2909 18.5 8.5 16.7091 8.5 14.5V14M8.5 14H11C13.2091 14 15 12.2091 15 10V9" stroke="url(#paint3_linear_1_31)" stroke-width="2"/>
<path d="M25 6V8M31 14H29C26.7909 14 25 12.2091 25 10V8M25 8H27C29.2091 8 31 6.20914 31 4V4M33.5 6V15V11C33.5 8.79086 35.2909 7 37.5 7H38.5" stroke="#001005" stroke-width="2"/>
<path d="M40.6876 11.6464C40.8059 11.964 40.9763 12.256 41.1882 12.5121L41.1047 12.5603L41.7184 13.0139C42.2166 13.3821 42.8336 13.6 43.5 13.6C44.3888 13.6 45.1873 13.2131 45.7361 12.6H46.965C46.2732 13.796 44.98 14.6 43.5 14.6C41.2909 14.6 39.5 12.8091 39.5 10.6C39.5 8.39087 41.2909 6.60001 43.5 6.60001C44.98 6.60001 46.2732 7.404 46.965 8.60001H45.7361C45.5993 8.44711 45.447 8.30835 45.2817 8.18616C44.7834 7.81789 44.1664 7.60001 43.5 7.60001C41.8431 7.60001 40.5 8.94315 40.5 10.6C40.5 10.7131 40.5063 10.8249 40.5185 10.9351L40.6032 11.6951L40.6876 11.6464ZM41.6985 11.0628L44.9035 9.21233L45.148 9.45492L45.5002 9.14805V9.60001H46.2321L42.1985 11.9288L41.6985 11.0628Z" fill="#001005" stroke="#001005"/>
<path d="M50.1876 11.6464C50.3059 11.964 50.4763 12.256 50.6882 12.5121L50.6047 12.5603L51.2184 13.0139C51.7166 13.3821 52.3336 13.6 53 13.6C53.8888 13.6 54.6873 13.2131 55.2361 12.6H56.465C55.7732 13.796 54.48 14.6 53 14.6C50.7909 14.6 49 12.8091 49 10.6C49 8.39087 50.7909 6.60001 53 6.60001C54.48 6.60001 55.7732 7.404 56.465 8.60001H55.2361C55.0993 8.44711 54.947 8.30835 54.7817 8.18616C54.2834 7.81789 53.6664 7.60001 53 7.60001C51.3431 7.60001 50 8.94315 50 10.6C50 10.7131 50.0063 10.8249 50.0185 10.9351L50.1032 11.6951L50.1876 11.6464ZM51.1985 11.0628L54.4035 9.21233L54.648 9.45492L55.0002 9.14805V9.60001H55.7321L51.6985 11.9288L51.1985 11.0628Z" fill="#001005" stroke="#001005"/>
</g>
<defs>
<linearGradient id="paint0_linear_1_31" x1="6" y1="5" x2="6" y2="12" gradientUnits="userSpaceOnUse">
<stop stop-color="#408060"/>
<stop offset="1" stop-color="#004020"/>
</linearGradient>
<linearGradient id="paint1_linear_1_31" x1="14" y1="2" x2="14" y2="9" gradientUnits="userSpaceOnUse">
<stop stop-color="#408060"/>
<stop offset="1" stop-color="#004020"/>
</linearGradient>
<linearGradient id="paint2_linear_1_31" x1="10" y1="0" x2="10" y2="7" gradientUnits="userSpaceOnUse">
<stop stop-color="#408060"/>
<stop offset="1" stop-color="#004020"/>
</linearGradient>
<linearGradient id="paint3_linear_1_31" x1="13.25" y1="9" x2="13.25" y2="18.5" gradientUnits="userSpaceOnUse">
<stop stop-color="#002010"/>
<stop offset="1" stop-color="#001005"/>
</linearGradient>
<clipPath id="clip0_1_31">
<rect width="58" height="19" fill="white"/>
</clipPath>
</defs>
</svg>
