<svg width="58" height="19" viewBox="0 0 58 19" fill="none" xmlns="http://www.w3.org/2000/svg">
<g clip-path="url(#clip0_1_36)">
<rect y="5" width="12" height="7" rx="1" fill="url(#paint0_linear_1_36)"/>
<rect x="0.25" y="5.25" width="11.5" height="6.5" rx="0.75" stroke="white" stroke-opacity="0.1" stroke-width="0.5"/>
<rect x="8" y="2" width="12" height="7" rx="1" fill="url(#paint1_linear_1_36)"/>
<rect x="8.25" y="2.25" width="11.5" height="6.5" rx="0.75" stroke="white" stroke-opacity="0.1" stroke-width="0.5"/>
<rect x="4" width="12" height="7" rx="1" fill="url(#paint2_linear_1_36)"/>
<rect x="4.25" y="0.25" width="11.5" height="6.5" rx="0.75" stroke="white" stroke-opacity="0.1" stroke-width="0.5"/>
<path d="M8.5 12V14M18 18.5H12.5C10.2909 18.5 8.5 16.7091 8.5 14.5V14M8.5 14H11C13.2091 14 15 12.2091 15 10V9" stroke="url(#paint3_linear_1_36)" stroke-width="2"/>
<path d="M25 6V8M31 14H29C26.7909 14 25 12.2091 25 10V8M25 8H27C29.2091 8 31 6.20914 31 4V4M33.5 6V15V11C33.5 8.79086 35.2909 7 37.5 7H38.5" stroke="#BBEECC" stroke-opacity="0.929412" stroke-width="2"/>
<path d="M47.7439 9.10001C47.1262 7.35222 45.4593 6.10001 43.5 6.10001C41.0147 6.10001 39 8.11472 39 10.6C39 13.0853 41.0147 15.1 43.5 15.1C45.4593 15.1 47.1262 13.8478 47.7439 12.1H45.5002C45.0441 12.7072 44.3179 13.1 43.5 13.1C42.9442 13.1 42.4307 12.9186 42.0155 12.6118C41.4701 12.2086 41.0944 11.589 41.0155 10.8797C41.0053 10.7879 41 10.6946 41 10.6C41 9.21929 42.1193 8.10001 43.5 8.10001C44.0558 8.10001 44.5693 8.28141 44.9845 8.58825C45.1802 8.73291 45.354 8.90545 45.5002 9.10001H47.2528H47.7439Z" fill="#BBEECC" fill-opacity="0.929412"/>
<path d="M41.0155 10.8797L44.9845 8.58825L45.5002 9.10001H47.2528L47.4641 9.46604L42.0155 12.6118L41.0155 10.8797Z" fill="#BBEECC" fill-opacity="0.929412"/>
<path d="M47.7439 9.10001H47.2528L47.4641 9.46604C47.6387 9.34403 47.7891 9.25235 47.7439 9.10001Z" fill="#BBEECC" fill-opacity="0.929412"/>
<path d="M41.0155 10.8797C41.0944 11.589 41.4701 12.2086 42.0155 12.6118L41.0155 10.8797Z" fill="#BBEECC" fill-opacity="0.929412"/>
<path d="M40.6876 11.6464C40.8059 11.964 40.9763 12.256 41.1882 12.5121L41.1047 12.5603L41.7184 13.0139C42.2166 13.3821 42.8336 13.6 43.5 13.6C44.3888 13.6 45.1873 13.2131 45.7361 12.6H46.965C46.2732 13.796 44.98 14.6 43.5 14.6C41.2909 14.6 39.5 12.8091 39.5 10.6C39.5 8.39087 41.2909 6.60001 43.5 6.60001C44.98 6.60001 46.2732 7.404 46.965 8.60001H45.7361C45.5993 8.44711 45.447 8.30835 45.2817 8.18616C44.7834 7.81789 44.1664 7.60001 43.5 7.60001C41.8431 7.60001 40.5 8.94315 40.5 10.6C40.5 10.7131 40.5063 10.8249 40.5185 10.9351L40.6032 11.6951L40.6876 11.6464ZM41.6985 11.0628L44.9035 9.21233L45.148 9.45492L45.5002 9.14805V9.60001H46.2321L42.1985 11.9288L41.6985 11.0628Z" stroke="#BBEECC" stroke-opacity="0.929412"/>
<path d="M57.2439 9.10001C56.6262 7.35222 54.9593 6.10001 53 6.10001C50.5147 6.10001 48.5 8.11472 48.5 10.6C48.5 13.0853 50.5147 15.1 53 15.1C54.9593 15.1 56.6262 13.8478 57.2439 12.1H55.0002C54.5441 12.7072 53.8179 13.1 53 13.1C52.4442 13.1 51.9307 12.9186 51.5155 12.6118C50.9701 12.2086 50.5944 11.589 50.5155 10.8797C50.5053 10.7879 50.5 10.6946 50.5 10.6C50.5 9.21929 51.6193 8.10001 53 8.10001C53.5558 8.10001 54.0693 8.28141 54.4845 8.58825C54.6802 8.73291 54.854 8.90545 55.0002 9.10001H56.7528H57.2439Z" fill="#BBEECC" fill-opacity="0.929412"/>
<path d="M50.5155 10.8797L54.4845 8.58825L55.0002 9.10001H56.7528L56.9641 9.46604L51.5155 12.6118L50.5155 10.8797Z" fill="#BBEECC" fill-opacity="0.929412"/>
<path d="M57.2439 9.10001H56.7528L56.9641 9.46604C57.1387 9.34403 57.2891 9.25235 57.2439 9.10001Z" fill="#BBEECC" fill-opacity="0.929412"/>
<path d="M50.5155 10.8797C50.5944 11.589 50.9701 12.2086 51.5155 12.6118L50.5155 10.8797Z" fill="#BBEECC" fill-opacity="0.929412"/>
<path d="M50.1876 11.6464C50.3059 11.964 50.4763 12.256 50.6882 12.5121L50.6047 12.5603L51.2184 13.0139C51.7166 13.3821 52.3336 13.6 53 13.6C53.8888 13.6 54.6873 13.2131 55.2361 12.6H56.465C55.7732 13.796 54.48 14.6 53 14.6C50.7909 14.6 49 12.8091 49 10.6C49 8.39087 50.7909 6.60001 53 6.60001C54.48 6.60001 55.7732 7.404 56.465 8.60001H55.2361C55.0993 8.44711 54.947 8.30835 54.7817 8.18616C54.2834 7.81789 53.6664 7.60001 53 7.60001C51.3431 7.60001 50 8.94315 50 10.6C50 10.7131 50.0063 10.8249 50.0185 10.9351L50.1032 11.6951L50.1876 11.6464ZM51.1985 11.0628L54.4035 9.21233L54.648 9.45492L55.0002 9.14805V9.60001H55.7321L51.6985 11.9288L51.1985 11.0628Z" stroke="#BBEECC" stroke-opacity="0.929412"/>
</g>
<defs>
<linearGradient id="paint0_linear_1_36" x1="6" y1="5" x2="6" y2="12" gradientUnits="userSpaceOnUse">
<stop stop-color="#50BB80" stop-opacity="0.929412"/>
<stop offset="1" stop-color="#206040"/>
</linearGradient>
<linearGradient id="paint1_linear_1_36" x1="14" y1="2" x2="14" y2="9" gradientUnits="userSpaceOnUse">
<stop stop-color="#50BB80" stop-opacity="0.929412"/>
<stop offset="1" stop-color="#206040"/>
</linearGradient>
<linearGradient id="paint2_linear_1_36" x1="10" y1="0" x2="10" y2="7" gradientUnits="userSpaceOnUse">
<stop stop-color="#50BB80" stop-opacity="0.929412"/>
<stop offset="1" stop-color="#206040"/>
</linearGradient>
<linearGradient id="paint3_linear_1_36" x1="13.25" y1="9" x2="13.25" y2="18.5" gradientUnits="userSpaceOnUse">
<stop stop-color="#BBEECC" stop-opacity="0.929412"/>
<stop offset="1" stop-color="#80CCAA" stop-opacity="0.929412"/>
</linearGradient>
<clipPath id="clip0_1_36">
<rect width="58" height="19" fill="white"/>
</clipPath>
</defs>
</svg>
